<svg version="1.1" viewBox="0 0 208.57 208.49" xmlns="http://www.w3.org/2000/svg">
 <path d="m23.283 78.731h5.83l0.46 5.62c1.38-1.9667 3.08-3.5067 5.1-4.62 2.0133-1.1133 4.2633-1.6833 6.75-1.71 1.9933 0 3.8033 0.28333 5.43 0.85 1.6267 0.56 3.0167 1.4367 4.17 2.63 1.1467 1.2 2.03 2.72 2.65 4.56s0.93 4.0233 0.93 6.55v24.16h-6.5v-24.02c0-1.6867-0.18667-3.1167-0.56-4.29-0.38-1.1667-0.93667-2.1133-1.67-2.84-0.74-0.72667-1.6433-1.2567-2.71-1.59-1.0667-0.32667-2.2933-0.49-3.68-0.49-2.18 0-4.0933 0.54667-5.74 1.64-1.6533 1.0867-2.9733 2.52-3.96 4.3v27.29h-6.5zm60.01 38.74c-2.6733 0-5.13-0.45667-7.37-1.37-2.2333-0.91334-4.1467-2.19-5.74-3.83-1.5933-1.6467-2.8367-3.5933-3.73-5.84-0.89334-2.2533-1.34-4.7033-1.34-7.35v-1.47c0-3.0733 0.49333-5.8233 1.48-8.25 0.98666-2.4267 2.2933-4.4767 3.92-6.15 1.6267-1.6733 3.4767-2.9567 5.55-3.85 2.08-0.89333 4.21-1.34 6.39-1.34 2.74 0 5.1333 0.47667 7.18 1.43 2.0533 0.94667 3.76 2.2567 5.12 3.93 1.36 1.68 2.3733 3.6567 3.04 5.93s1 4.7333 1 7.38v2.92h-27.17c0.0667 1.7333 0.4 3.3633 1 4.89 0.6 1.52 1.42 2.85 2.46 3.99 1.04 1.1333 2.2867 2.03 3.74 2.69 1.4533 0.65333 3.06 0.98 4.82 0.98 2.32 0 4.3833-0.47 6.19-1.41 1.8067-0.93334 3.3067-2.1733 4.5-3.72l3.97 3.09c-0.63333 0.96-1.4233 1.88-2.37 2.76-0.95333 0.88-2.05 1.66-3.29 2.34s-2.6467 1.2233-4.22 1.63c-1.5667 0.41333-3.2767 0.62-5.13 0.62zm-0.84-34.1c-1.3133 0-2.5567 0.24-3.73 0.72s-2.23 1.1833-3.17 2.11c-0.93334 0.92667-1.7233 2.0633-2.37 3.41-0.64667 1.3467-1.0967 2.9-1.35 4.66h20.46v-0.5c-0.0733-1.2667-0.31333-2.52-0.72-3.76-0.41333-1.24-1.0167-2.3533-1.81-3.34-0.8-0.98-1.8033-1.7767-3.01-2.39-1.2067-0.60667-2.64-0.91-4.3-0.91zm26.01 14.8v-0.74c0-2.8333 0.35667-5.44 1.07-7.82 0.72-2.38 1.74-4.4267 3.06-6.14 1.3267-1.7067 2.9267-3.0433 4.8-4.01 1.8733-0.96 3.97-1.44 6.29-1.44 2.2733 0 4.26 0.38333 5.96 1.15 1.7 0.76 3.17 1.8667 4.41 3.32v-19.72h6.51v54h-5.98l-0.28-4.01c-1.2667 1.5467-2.7767 2.7167-4.53 3.51-1.76 0.8-3.8133 1.2-6.16 1.2-2.2933 0-4.3733-0.49334-6.24-1.48-1.86-0.98-3.4467-2.34-4.76-4.08-1.3133-1.7333-2.3333-3.7767-3.06-6.13-0.72667-2.3533-1.09-4.89-1.09-7.61zm6.5-0.74v0.74c0 1.8533 0.2 3.61 0.6 5.27 0.4 1.6667 1.0167 3.1333 1.85 4.4 0.83333 1.26 1.8933 2.26 3.18 3s2.8333 1.11 4.64 1.11c1.1 0 2.0967-0.13 2.99-0.39 0.88667-0.25334 1.6933-0.62334 2.42-1.11 0.72667-0.48 1.3733-1.0533 1.94-1.72 0.56-0.66667 1.05-1.41 1.47-2.23v-17.65c-0.84-1.5467-1.9767-2.8167-3.41-3.81-1.4267-1-3.2067-1.5-5.34-1.5-1.8267 0-3.39 0.37667-4.69 1.13-1.3 0.74667-2.3667 1.76-3.2 3.04-0.83333 1.2733-1.45 2.75-1.85 4.43-0.4 1.6733-0.6 3.4367-0.6 5.29zm54.74 20.04c-2.6667 0-5.12-0.45667-7.36-1.37-2.24-0.91334-4.1567-2.19-5.75-3.83-1.5933-1.6467-2.8367-3.5933-3.73-5.84-0.88667-2.2533-1.33-4.7033-1.33-7.35v-1.47c0-3.0733 0.49-5.8233 1.47-8.25 0.98667-2.4267 2.2933-4.4767 3.92-6.15 1.6333-1.6733 3.4867-2.9567 5.56-3.85s4.2-1.34 6.38-1.34c2.74 0 5.1367 0.47667 7.19 1.43 2.0467 0.94667 3.75 2.2567 5.11 3.93 1.36 1.68 2.3733 3.6567 3.04 5.93 0.67333 2.2733 1.01 4.7333 1.01 7.38v2.92h-27.18c0.0733 1.7333 0.40667 3.3633 1 4.89 0.6 1.52 1.42 2.85 2.46 3.99 1.0467 1.1333 2.2967 2.03 3.75 2.69 1.4533 0.65333 3.0567 0.98 4.81 0.98 2.3267 0 4.39-0.47 6.19-1.41 1.8067-0.93334 3.3067-2.1733 4.5-3.72l3.97 3.09c-0.62667 0.96-1.4167 1.88-2.37 2.76-0.94667 0.88-2.0433 1.66-3.29 2.34-1.24 0.68-2.6433 1.2233-4.21 1.63-1.5733 0.41333-3.2867 0.62-5.14 0.62zm-0.84-34.1c-1.3133 0-2.5567 0.24-3.73 0.72s-2.2267 1.1833-3.16 2.11c-0.94 0.92667-1.73 2.0633-2.37 3.41-0.64667 1.3467-1.1 2.9-1.36 4.66h20.46v-0.5c-0.0667-1.2667-0.30667-2.52-0.72-3.76-0.40667-1.24-1.01-2.3533-1.81-3.34-0.79333-0.98-1.7933-1.7767-3-2.39-1.2067-0.60667-2.6433-0.91-4.31-0.91zm-146.36 78.8v-0.74c0-2.8333 0.35666-5.44 1.07-7.82 0.72-2.38 1.74-4.4267 3.06-6.14 1.3267-1.7067 2.9267-3.0433 4.8-4.01 1.8733-0.96 3.97-1.44 6.29-1.44 2.2733 0 4.26 0.38333 5.96 1.15 1.7 0.76 3.1733 1.8667 4.42 3.32v-19.72h6.5v54h-5.98l-0.28-4.01c-1.2667 1.5467-2.7767 2.7167-4.53 3.51-1.76 0.8-3.8133 1.2-6.16 1.2-2.2933 0-4.3733-0.49334-6.24-1.48-1.86-0.98-3.4467-2.34-4.76-4.08-1.3133-1.7333-2.3333-3.7767-3.06-6.13-0.72667-2.3533-1.09-4.89-1.09-7.61zm6.51-0.74v0.74c0 1.8533 0.19666 3.61 0.59 5.27 0.4 1.6667 1.0167 3.1333 1.85 4.4 0.83333 1.26 1.8933 2.26 3.18 3 1.2867 0.74 2.8333 1.11 4.64 1.11 1.1 0 2.0967-0.13 2.99-0.39 0.89333-0.25334 1.7033-0.62334 2.43-1.11 0.72666-0.48 1.37-1.0533 1.93-1.72 0.56-0.66667 1.0533-1.41 1.48-2.23v-17.65c-0.84667-1.5467-1.9833-2.8167-3.41-3.81-1.4333-1-3.2167-1.5-5.35-1.5-1.8267 0-3.39 0.37666-4.69 1.13-1.3 0.74666-2.3667 1.76-3.2 3.04-0.83334 1.2733-1.45 2.75-1.85 4.43-0.39334 1.6733-0.59 3.4367-0.59 5.29zm54.73 20.04c-2.6667 0-5.12-0.45667-7.36-1.37-2.24-0.91334-4.1567-2.19-5.75-3.83-1.5933-1.6467-2.8367-3.5933-3.73-5.84-0.88667-2.2533-1.33-4.7033-1.33-7.35v-1.47c0-3.0733 0.49-5.8233 1.47-8.25 0.98666-2.4267 2.2933-4.4767 3.92-6.15 1.6333-1.6733 3.4867-2.9567 5.56-3.85 2.0733-0.89334 4.2-1.34 6.38-1.34 2.74 0 5.1367 0.47666 7.19 1.43 2.0533 0.94666 3.76 2.2567 5.12 3.93 1.3533 1.68 2.3667 3.6567 3.04 5.93 0.66667 2.2733 1 4.7333 1 7.38v2.92h-27.18c0.0733 1.7333 0.40666 3.3633 1 4.89 0.6 1.52 1.4233 2.85 2.47 3.99 1.04 1.1333 2.2867 2.03 3.74 2.69 1.4533 0.65333 3.06 0.98 4.82 0.98 2.32 0 4.38-0.47 6.18-1.41 1.8067-0.93334 3.3067-2.1733 4.5-3.72l3.98 3.09c-0.63333 0.96-1.4267 1.88-2.38 2.76-0.94667 0.88-2.04 1.66-3.28 2.34-1.2467 0.68-2.6533 1.2233-4.22 1.63-1.5733 0.41333-3.2867 0.62-5.14 0.62zm-0.84-34.1c-1.3133 0-2.5567 0.24-3.73 0.72-1.1667 0.48-2.22 1.1833-3.16 2.11-0.94 0.92666-1.73 2.0633-2.37 3.41-0.64667 1.3467-1.1 2.9-1.36 4.66h20.46v-0.5c-0.0667-1.2667-0.30667-2.52-0.72-3.76-0.40667-1.24-1.01-2.3533-1.81-3.34-0.79333-0.98-1.7933-1.7767-3-2.39-1.2067-0.60667-2.6433-0.91-4.31-0.91zm31.25-4.64 10.9 28.68 0.6 2.36 0.63-2.36 10.66-28.68h6.64l-15.5 38.04h-4.96l-15.65-38.04zm70.77 38.04v5.3h-32.23v-5.3z"/>
 <path d="m0 0v208.49h208.57v-208.49zm8.0293 8.0293h192.51v192.43h-192.51z"/>
</svg>
